<?xml version="1.0" encoding="utf-8"?>
<!-- Generator: Adobe Illustrator 19.0.0, SVG Export Plug-In . SVG Version: 6.00 Build 0)  -->
<svg version="1.1" id="Layer_1" xmlns="http://www.w3.org/2000/svg" xmlns:xlink="http://www.w3.org/1999/xlink" x="0px" y="0px"
	 viewBox="0 0 96 96" style="enable-background:new 0 0 96 96;" xml:space="preserve">
<style type="text/css">
	.st0{fill:#4F5D73;}
	.st1{fill:#465162;}
	.st2{fill:#E0995E;}
	.st3{fill:#3F4755;}
	.st4{fill:#BA8152;}
	.st5{fill:#393F4A;}
	.st6{fill:#9C6D48;}
	.st7{fill:#FFFFFF;}
</style>
<g id="XMLID_1_">
	<path id="XMLID_3_" class="st0" d="M48,15.5c17.9,0,32.5,14.6,32.5,32.5S65.9,80.5,48,80.5c-17.9,0-32.5-14.6-32.5-32.5
		S30.1,15.5,48,15.5"/>
	<path id="XMLID_4_" class="st1" d="M27.7,38.9c0,0.3-0.1,0.7-0.1,1c0,4.1,2.4,7.6,5.9,9.2c0.6-0.2,1.3-0.4,2-0.5
		c0.1-0.3,0.1-0.5,0.2-0.8c-1.3-0.3-2.6-0.8-3.7-1.5c0,0,0,0,0,0C29.7,44.6,28,41.9,27.7,38.9"/>
	<path id="XMLID_5_" class="st2" d="M37.8,27.7c5.6,0,10.2,4.5,10.2,10.2S43.5,48,37.8,48c-5.6,0-10.2-4.5-10.2-10.2
		S32.2,27.7,37.8,27.7"/>
	<path id="XMLID_6_" class="st1" d="M50,37.8c-0.7,0-1.4,0-2,0.1c0,0.3,0,0.6,0,0.9c0,0.3,0.1,0.7,0.1,1C48,45.5,43.5,50,37.8,50
		c-1.5,0-2.9-0.3-4.2-0.9c-3.5,1.3-5.9,4.5-5.9,8.2c0,4.9,4.2,8.9,9.3,8.9H65c4.2,0,7.4-3.1,7.4-7.1c0-4-3.4-7.1-7.4-7.1
		C65,44.2,58.3,37.8,50,37.8"/>
	<path id="XMLID_7_" class="st3" d="M47.9,38.9C47.4,44,43.1,48,37.8,48c0,0,0,0,0,0c0,0,0,0,0,0c0,0,0,0,0,0c-0.7,0-1.3-0.1-2-0.2
		c-0.1,0.3-0.2,0.5-0.2,0.8c-0.7,0.1-1.4,0.3-2,0.5c1.3,0.6,2.7,0.9,4.2,0.9C43.5,50,48,45.5,48,39.9C48,39.5,48,39.2,47.9,38.9"/>
	<path id="XMLID_10_" class="st4" d="M37.8,48C37.8,48,37.8,48,37.8,48C37.8,48,37.8,48,37.8,48 M48,38L48,38
		c-0.1,5.5-4.6,10-10.2,10c0,0,0,0,0,0c0,0,0,0,0,0c5.3,0,9.6-4,10.1-9.1C48,38.6,48,38.3,48,38"/>
	<path id="XMLID_13_" class="st1" d="M48,37.8C48,37.8,48,37.8,48,37.8L48,37.8C48,37.8,48,37.8,48,37.8 M47.6,34.9
		C47.6,34.9,47.6,34.9,47.6,34.9c0,0.2,0.1,0.3,0.1,0.5C47.7,35.2,47.6,35,47.6,34.9"/>
	<path id="XMLID_14_" class="st3" d="M32.2,46.3C32.2,46.3,32.2,46.3,32.2,46.3c1.1,0.8,2.3,1.3,3.7,1.5c0,0,0,0,0,0
		C34.5,47.5,33.3,47,32.2,46.3"/>
	<path id="XMLID_15_" class="st4" d="M47.6,34.9c-6.3,0.6-11.5,5-13,10.7c-0.8,0.1-1.6,0.4-2.4,0.7c1.1,0.7,2.3,1.3,3.7,1.5
		c1.7-5.2,6.4-9.1,12.2-9.8c0,0,0-0.1,0-0.1c0,0,0,0,0,0c0-0.8-0.1-1.7-0.3-2.5C47.7,35.2,47.6,35,47.6,34.9"/>
	<path id="XMLID_18_" class="st5" d="M37.8,48C37.8,48,37.8,48,37.8,48C37.8,48,37.8,48,37.8,48 M35.8,47.8
		C35.8,47.8,35.8,47.8,35.8,47.8c0.6,0.1,1.3,0.2,2,0.2C37.1,48,36.5,47.9,35.8,47.8"/>
	<path id="XMLID_19_" class="st6" d="M48,38c-5.8,0.7-10.4,4.6-12.2,9.8c0.6,0.1,1.3,0.2,2,0.2c0,0,0,0,0,0c0,0,0,0,0,0c0,0,0,0,0,0
		C43.4,48,47.9,43.5,48,38"/>
	<path id="XMLID_20_" class="st7" d="M65,50c0-7.8-6.7-14.2-14.9-14.2c-7,0-12.8,4.6-14.4,10.8c-4.5,0.6-7.9,4.4-7.9,8.7
		c0,4.9,4.2,8.9,9.3,8.9H65c4.2,0,7.4-3.1,7.4-7.1C72.4,53.2,69,50,65,50z"/>
</g>
</svg>
